<svg xmlns="http://www.w3.org/2000/svg" viewBox="0 0 498.57 498.57"><defs><style>.cls-1{fill:#fbfaf2;}.cls-2{fill:#eaa62f;}.cls-3{fill:#f4b940;}.cls-4{fill:#28a5c5;}.cls-5{fill:#efefef;}.cls-6{fill:#fff;}.cls-7{fill:#f9ca55;}.cls-8{fill:#1b95b2;}</style></defs><g id="Layer_2" data-name="Layer 2"><g id="OBJECTS"><rect class="cls-1" width="498.57" height="498.57"/><polygon class="cls-2" points="166.94 286.49 163.93 267.16 155.37 266.9 145.75 272.21 150.87 292.69 165.43 322.99 164.43 331.1 169.26 330.97 187.9 314.7 166.94 286.49"/><polygon class="cls-3" points="159.09 267.29 162.1 286.62 183.06 314.84 164.43 331.1 146.03 292.83 140.92 272.35 150.53 267.03 159.09 267.29"/><path class="cls-4" d="M197.66,233.49l-38,5,30.69,24.42a207.6,207.6,0,0,0-26.69,4.16c-9.85-2.83-20.66-16.16-26.05-33.56l20.69-6.42,13.94-4.33Z"/><path class="cls-5" d="M251.73,243.83c.3.42.61.82.93,1.22h0l-.15-.2C252.23,244.52,252,244.18,251.73,243.83Z"/><path class="cls-2" d="M137.62,233.48l-9,2.78L109,242.37c6.4,20.65,20.83,35.3,31.49,32h0a12.57,12.57,0,0,0,2.26-1,134.67,134.67,0,0,1,20.95-6.33C153.83,264.22,143,250.88,137.62,233.48Z"/><path class="cls-3" d="M137.62,233.48c-5.4-17.39-4-34.51,2.49-42.41a135.48,135.48,0,0,1-20.85,6.63,12.55,12.55,0,0,0-2.41.47h0c-10.67,3.31-14.27,23.55-7.86,44.2l19.68-6.11Z"/><path class="cls-4" d="M183.05,195.66l-19.37,23.45,8.58,3.63-13.94,4.33-20.69,6.42c-5.4-17.41-4-34.51,2.48-42.42A225.31,225.31,0,0,0,178,171.26l-9.24,19.81Z"/><path class="cls-3" d="M252.66,245.05a2.07,2.07,0,0,0,.19.25l-.21-.25-.15-.2c-.26-.33-.52-.67-.76-1C252,244.25,252.34,244.65,252.66,245.05Z"/><path class="cls-5" d="M252.66,245.05a2.07,2.07,0,0,0,.19.25l-.21-.25-.15-.2c-.26-.33-.52-.67-.76-1C252,244.25,252.34,244.65,252.66,245.05Z"/><path class="cls-6" d="M252.66,245.05a2.07,2.07,0,0,0,.19.25l-.21-.25-.15-.2c-.26-.33-.52-.67-.76-1C252,244.25,252.34,244.65,252.66,245.05Z"/><path class="cls-4" d="M276.65,285.4l-33.9-45.22.54-9.3,28.59,10.37-.47-15,21.77,2A304.36,304.36,0,0,0,344.39,260C325,259.22,299.76,268.06,276.65,285.4Z"/><path class="cls-4" d="M233.26,343.27c-5.42-30.58-13.85-54.55-22.25-72.55l12.7-37.11,17.45,34.1,1.59-27.53,33.9,45.22C253.55,302.71,238,324.42,233.26,343.27Z"/><path class="cls-3" d="M332.1,359.33c37-27.79,54.68-66.86,39.37-87.29-5.75-7.68-15.36-11.63-27.08-12.06-19.41-.76-44.63,8.08-67.74,25.42s-38.65,39-43.39,57.87c-2.84,11.38-1.75,21.72,4,29.4C252.58,393.09,295,387.13,332.1,359.33ZM242,369.09c-7.52-10-4.94-26.25,5.05-43a.21.21,0,0,0,0-.07c.47-.78.94-1.55,1.44-2.33l.16-.27.14-.21c.22-.36.46-.72.7-1.06s.57-.89.87-1.32c.4-.58.79-1.15,1.21-1.72q2.5-3.52,5.38-7c.45-.56.91-1.1,1.39-1.64.15-.19.31-.37.48-.55.3-.35.61-.71.93-1.06,1.13-1.27,2.29-2.54,3.5-3.8.62-.63,1.24-1.26,1.88-1.88.93-.94,1.88-1.86,2.86-2.78l.08-.07c.46-.44.91-.86,1.39-1.29l.49-.45c.4-.37.82-.73,1.24-1.09s.7-.64,1.06-1l.07-.07,1.35-1.13.39-.32c.72-.63,1.45-1.22,2.2-1.81.55-.46,1.11-.9,1.68-1.33.72-.58,1.46-1.14,2.21-1.7s1.42-1.06,2.13-1.57h0c.61-.45,1.24-.91,1.87-1.33,1.94-1.36,3.9-2.65,5.87-3.89.3-.2.62-.39.94-.59.79-.48,1.59-1,2.39-1.43a120.42,120.42,0,0,1,30.13-12.85,3.31,3.31,0,0,1,.39-.11h0c18.9-4.88,35.19-2.81,42.71,7.21h0c13.1,17.45-4.41,53.6-38.19,78.93S255.12,386.55,242,369.09Z"/><path class="cls-6" d="M242,369.09c-7.52-10-4.94-26.25,5.05-43-1.11,5.93-.36,11.19,2.57,15.11,4,5.33,11.49,7.47,20.63,6.75,12-1,26.92-6.85,40.48-17s23.42-22.81,27.68-34.09c3.25-8.57,3.3-16.35-.7-21.67-2.94-3.94-7.79-6.12-13.76-6.72,18.9-4.88,35.19-2.81,42.71,7.21h0c13.1,17.45-4.41,53.6-38.19,78.93S255.12,386.55,242,369.09Z"/><path class="cls-5" d="M270.29,347.91c-9.14.72-16.63-1.42-20.63-6.75-2.93-3.92-3.68-9.18-2.57-15.11a.21.21,0,0,0,0-.07c.47-.78.94-1.55,1.44-2.33a2.13,2.13,0,0,1,.16-.25c.28-.44.55-.87.84-1.29s.57-.89.87-1.32c.4-.58.79-1.15,1.21-1.72q2.5-3.52,5.38-7c.45-.56.91-1.1,1.39-1.64.15-.19.31-.37.48-.55.3-.35.61-.71.93-1.06,1.13-1.27,2.29-2.54,3.5-3.8.62-.63,1.24-1.26,1.88-1.88.93-.94,1.88-1.86,2.86-2.78a65.94,65.94,0,0,1,16.74,13.29,33.67,33.67,0,0,1,3.47,4.57,4.72,4.72,0,0,0,.34.55,2.57,2.57,0,0,0,.66.61s0,0,0,0l0,.06c1.33,1.75,5.4,1,9.52-1.71.45-.28.92-.6,1.36-.94h0l.75-.59c4-3.3,6.2-7.27,4.81-9.1a2.41,2.41,0,0,0-.44-.91,3.19,3.19,0,0,0-.44-.47,34.52,34.52,0,0,1-3.4-4.62,65.93,65.93,0,0,1-8.06-19.79,120.42,120.42,0,0,1,30.13-12.85l.41-.1c6,.6,10.82,2.78,13.76,6.72,4,5.32,3.95,13.1.7,21.67-4.26,11.28-14.11,23.92-27.68,34.09S282.32,347,270.29,347.91Z"/><path class="cls-5" d="M324,268.4h0l-.41.1A3.31,3.31,0,0,1,324,268.4Z"/><path class="cls-5" d="M248.73,323.4a2.13,2.13,0,0,0-.16.25l.16-.27.14-.21c.22-.36.46-.72.7-1.06C249.28,322.53,249,323,248.73,323.4Z"/><path class="cls-6" d="M289.28,319.4a2.57,2.57,0,0,1-.66-.61,4.72,4.72,0,0,1-.34-.55,33.67,33.67,0,0,0-3.47-4.57,65.94,65.94,0,0,0-16.74-13.29l.08-.07c.46-.44.91-.86,1.39-1.29l.49-.45c.4-.37.82-.73,1.24-1.09s.7-.64,1.06-1,.94-.8,1.42-1.2l.39-.32c.72-.61,1.45-1.22,2.2-1.81.55-.46,1.11-.9,1.68-1.33.72-.58,1.46-1.14,2.21-1.7s1.42-1.06,2.13-1.57h0c.61-.45,1.24-.91,1.87-1.33,1.94-1.36,3.9-2.65,5.87-3.89.3-.2.62-.39.94-.59.79-.48,1.59-1,2.39-1.43a65.93,65.93,0,0,0,8.06,19.79,34.52,34.52,0,0,0,3.4,4.62,3.19,3.19,0,0,1,.44.47,2.41,2.41,0,0,1,.44.91c-1.45-1.95-6.32-.78-10.86,2.64S288,317.41,289.28,319.4Z"/><path class="cls-5" d="M273.75,295.33c-.48.4-.95.79-1.42,1.2l.07-.07Z"/><path class="cls-3" d="M289.3,319.43s0,0,0,0c-1.32-2,1.16-6.26,5.65-9.61s9.41-4.59,10.86-2.64c.71,2.37-1.27,6.15-4.81,9.1l-.75.59h0c-.44.34-.91.66-1.36.94C295.17,320.08,291.26,320.74,289.3,319.43Z"/><path class="cls-5" d="M301,316.25c3.54-2.95,5.52-6.73,4.81-9.1C307.18,309,305,313,301,316.25Z"/><path class="cls-5" d="M289.34,319.49l0-.06c2,1.31,5.87.65,9.56-1.65C294.74,320.46,290.67,321.24,289.34,319.49Z"/><polygon class="cls-7" points="192.13 79.41 186.04 125.14 205 116.74 186.38 175.38 192.78 132.5 170.79 141.98 192.13 79.41"/><polygon class="cls-7" points="366.32 187.91 335.92 199.61 347.54 208.52 304.88 216.83 333.63 206.28 320.31 195.86 366.32 187.91"/><path class="cls-8" d="M259.29,145.45q-1.43,5.48-2.21,9.54a43.81,43.81,0,0,0-.78,8.24,12.86,12.86,0,0,0,1.5,5.79,19.38,19.38,0,0,1-4.2,1.74,16.37,16.37,0,0,1-4.14.5,8.19,8.19,0,0,1-6.15-2.24,8.75,8.75,0,0,1-2.18-6.35c0-.49.08-1.49.25-3a49.85,49.85,0,0,1-5,.71,51.29,51.29,0,0,1-5.13.28q-5.66,0-8.61-1.83a5.9,5.9,0,0,1-3-5.32,13.55,13.55,0,0,1,1.28-5.16q1.28-3,3.89-8.15,3.28-6.41,5-10.73a21.54,21.54,0,0,0,1.75-8,7.86,7.86,0,0,0-.5-2.92,19.27,19.27,0,0,1,3.42-1,16.87,16.87,0,0,1,3.23-.4q8.4,0,8.4,8.33,0,5.67-4,12.38a76.19,76.19,0,0,1-12.13,14.74h13a71.48,71.48,0,0,1,4.66-12.07,11.78,11.78,0,0,1,4.23-2.3,16.13,16.13,0,0,1,5.23-1,5.44,5.44,0,0,1,2.7.46,2,2,0,0,1,.72,1.78A30.91,30.91,0,0,1,259.29,145.45Z"/><path class="cls-8" d="M274.53,159.81a15.93,15.93,0,0,1-6.32-6.93,23.74,23.74,0,0,1-2.2-10.54,27,27,0,0,1,3.1-13.12,22.27,22.27,0,0,1,8.71-8.9,25.69,25.69,0,0,1,12.87-3.17,14.2,14.2,0,0,1,2.62.28,13.48,13.48,0,0,1,2.42.65,5.74,5.74,0,0,1,.75,3,11.52,11.52,0,0,1,7.31,5.25q2.52,4.08,2.52,10.73a27.76,27.76,0,0,1-2.93,12.78,23.14,23.14,0,0,1-8,9.08,20.12,20.12,0,0,1-11.29,3.33A18.4,18.4,0,0,1,274.53,159.81Zm14.7-8.42a13.4,13.4,0,0,0,3.24-5.6,26.72,26.72,0,0,0,1.15-8.12c0-3.27-.59-5.71-1.77-7.3a6.27,6.27,0,0,0-5.38-2.4,9.43,9.43,0,0,0-3.49.75,20.49,20.49,0,0,0-3.11,6.62,28.71,28.71,0,0,0-1.18,7.93,14.7,14.7,0,0,0,1.59,7.4,4.77,4.77,0,0,0,4.26,2.74A6.6,6.6,0,0,0,289.23,151.39Z"/><path class="cls-8" d="M349,145.45c-1,3.65-1.69,6.83-2.21,9.54a43.81,43.81,0,0,0-.78,8.24,13,13,0,0,0,1.49,5.79,19.12,19.12,0,0,1-4.19,1.74,16.42,16.42,0,0,1-4.14.5A8.21,8.21,0,0,1,333,169a8.75,8.75,0,0,1-2.17-6.35c0-.49.08-1.49.25-3a50.27,50.27,0,0,1-5,.71c-1.89.19-3.6.28-5.13.28-3.77,0-6.65-.61-8.61-1.83a5.9,5.9,0,0,1-3-5.32,13.55,13.55,0,0,1,1.28-5.16q1.28-3,3.88-8.15,3.3-6.41,5-10.73a21.51,21.51,0,0,0,1.74-8,7.87,7.87,0,0,0-.49-2.92,19.27,19.27,0,0,1,3.42-1,16.87,16.87,0,0,1,3.23-.4q8.4,0,8.39,8.33,0,5.67-4,12.38a75.72,75.72,0,0,1-12.12,14.74h13a70.64,70.64,0,0,1,4.66-12.07,11.78,11.78,0,0,1,4.23-2.3,16.13,16.13,0,0,1,5.22-1,5.46,5.46,0,0,1,2.71.46,2,2,0,0,1,.71,1.78A30.57,30.57,0,0,1,349,145.45Z"/><path class="cls-4" d="M263.29,145.45q-1.43,5.48-2.21,9.54a43.81,43.81,0,0,0-.78,8.24,12.86,12.86,0,0,0,1.5,5.79,19.38,19.38,0,0,1-4.2,1.74,16.37,16.37,0,0,1-4.14.5,8.19,8.19,0,0,1-6.15-2.24,8.75,8.75,0,0,1-2.18-6.35c0-.49.08-1.49.25-3a49.85,49.85,0,0,1-5,.71,51.29,51.29,0,0,1-5.13.28q-5.66,0-8.61-1.83a5.9,5.9,0,0,1-3-5.32,13.55,13.55,0,0,1,1.28-5.16q1.28-3,3.89-8.15,3.28-6.41,5-10.73a21.54,21.54,0,0,0,1.75-8,7.86,7.86,0,0,0-.5-2.92,19.27,19.27,0,0,1,3.42-1,16.87,16.87,0,0,1,3.23-.4q8.4,0,8.4,8.33,0,5.67-4,12.38a76.19,76.19,0,0,1-12.13,14.74h13a71.48,71.48,0,0,1,4.66-12.07,11.78,11.78,0,0,1,4.23-2.3,16.13,16.13,0,0,1,5.23-1,5.44,5.44,0,0,1,2.7.46,2,2,0,0,1,.72,1.78A30.91,30.91,0,0,1,263.29,145.45Z"/><path class="cls-4" d="M278.53,159.81a15.93,15.93,0,0,1-6.32-6.93,23.74,23.74,0,0,1-2.2-10.54,27,27,0,0,1,3.1-13.12,22.27,22.27,0,0,1,8.71-8.9,25.69,25.69,0,0,1,12.87-3.17,14.2,14.2,0,0,1,2.62.28,13.48,13.48,0,0,1,2.42.65,5.74,5.74,0,0,1,.75,3,11.52,11.52,0,0,1,7.31,5.25q2.52,4.08,2.52,10.73a27.76,27.76,0,0,1-2.93,12.78,23.14,23.14,0,0,1-8,9.08,20.12,20.12,0,0,1-11.29,3.33A18.4,18.4,0,0,1,278.53,159.81Zm14.7-8.42a13.4,13.4,0,0,0,3.24-5.6,26.72,26.72,0,0,0,1.15-8.12c0-3.27-.59-5.71-1.77-7.3a6.27,6.27,0,0,0-5.38-2.4,9.43,9.43,0,0,0-3.49.75,20.49,20.49,0,0,0-3.11,6.62,28.71,28.71,0,0,0-1.18,7.93,14.7,14.7,0,0,0,1.59,7.4,4.77,4.77,0,0,0,4.26,2.74A6.6,6.6,0,0,0,293.23,151.39Z"/><path class="cls-4" d="M353,145.45c-1,3.65-1.69,6.83-2.21,9.54a43.81,43.81,0,0,0-.78,8.24,13,13,0,0,0,1.49,5.79,19.12,19.12,0,0,1-4.19,1.74,16.42,16.42,0,0,1-4.14.5A8.21,8.21,0,0,1,337,169a8.75,8.75,0,0,1-2.17-6.35c0-.49.08-1.49.25-3a50.27,50.27,0,0,1-5,.71c-1.89.19-3.6.28-5.13.28-3.77,0-6.65-.61-8.61-1.83a5.9,5.9,0,0,1-3-5.32,13.55,13.55,0,0,1,1.28-5.16q1.28-3,3.88-8.15,3.3-6.41,5-10.73a21.51,21.51,0,0,0,1.74-8,7.87,7.87,0,0,0-.49-2.92,19.27,19.27,0,0,1,3.42-1,16.87,16.87,0,0,1,3.23-.4q8.4,0,8.39,8.33,0,5.67-4,12.38a75.72,75.72,0,0,1-12.12,14.74h13a70.64,70.64,0,0,1,4.66-12.07,11.78,11.78,0,0,1,4.23-2.3,16.13,16.13,0,0,1,5.22-1,5.46,5.46,0,0,1,2.71.46,2,2,0,0,1,.71,1.78A30.57,30.57,0,0,1,353,145.45Z"/></g></g></svg>