<svg xmlns="http://www.w3.org/2000/svg" xmlns:xlink="http://www.w3.org/1999/xlink" width="1919.519" height="999.01" viewBox="0 0 1919.519 999.01">
  <defs>
    <clipPath id="clip-path">
      <rect x="230" y="27" width="1919.519" height="999.01" fill="none"/>
    </clipPath>
    <filter id="Path_129" x="-230" y="-19.632" width="2307.223" height="1051.642" filterUnits="userSpaceOnUse">
      <feOffset dy="3" input="SourceAlpha"/>
      <feGaussianBlur stdDeviation="10" result="blur"/>
      <feFlood flood-opacity="0.161"/>
      <feComposite operator="in" in2="blur"/>
      <feComposite in="SourceGraphic"/>
    </filter>
    <filter id="Path_128" x="-196.549" y="-27" width="2279.067" height="1059.01" filterUnits="userSpaceOnUse">
      <feOffset dy="3" input="SourceAlpha"/>
      <feGaussianBlur stdDeviation="10" result="blur-2"/>
      <feFlood flood-opacity="0.161"/>
      <feComposite operator="in" in2="blur-2"/>
      <feComposite in="SourceGraphic"/>
    </filter>
  </defs>
  <g id="Scroll_Group_13" data-name="Scroll Group 13" transform="translate(-230 -27)" clip-path="url(#clip-path)" style="isolation: isolate">
    <g id="Group_43" data-name="Group 43" transform="translate(229.451 -3825.99)">
      <g id="Group_41" data-name="Group 41">
        <g transform="matrix(1, 0, 0, 1, 0.55, 3852.99)" filter="url(#Path_129)">
          <path id="Path_129-2" data-name="Path 129" d="M-118-18.336C31-44.553-49,52.971,392,52.971c231.084,0,506.055-68.37,822-81.794,287.313-12.208,448,4.195,656,58.724s176,114.22,176,159.394L1920,877.206c0,45.174-34.922,81.794-78,81.794H78c-43.078,0-78-36.621-78-81.794l-166-742.44C-166,89.592-267,7.88-118-18.336Z" transform="translate(-0.55 40.01)" fill="#347fd9" opacity="0.096"/>
        </g>
        <g transform="matrix(1, 0, 0, 1, 0.55, 3852.99)" filter="url(#Path_128)">
          <path id="Path_128-2" data-name="Path 128" d="M288-32.662c374-31.448,617.5,48.22,998,48.22s403.5-73.379,610-33.545,150,162.4,150,207.557L1920,877.235c0,45.157-34.922,81.765-78,81.765H78c-43.078,0-78-36.607-78-81.765L-166,378.259C-166,333.1-86-1.214,288-32.662Z" transform="translate(-0.55 40.01)" fill="#347fd9" opacity="0.096"/>
        </g>
      </g>
    </g>
  </g>
</svg>
