<svg xmlns="http://www.w3.org/2000/svg" xmlns:xlink="http://www.w3.org/1999/xlink" viewBox="0 0 498.57 498.57"><defs><style>.cls-1,.cls-7{fill:none;}.cls-2{fill:#fbfaf2;}.cls-3{fill:#cdf3f9;}.cls-4{fill:#93d9e5;}.cls-5{fill:#b3e8f4;}.cls-6{fill:#fff;}.cls-7{stroke:#28a5c5;stroke-miterlimit:10;}.cls-8{clip-path:url(#clip-path);}.cls-9{fill:#eaeae8;}.cls-10{fill:#28a5c5;}.cls-11{fill:#90e6f4;}.cls-12{fill:#209ab7;}</style><clipPath id="clip-path"><path class="cls-1" d="M399,325.31a230.46,230.46,0,0,1-4.08,43.56H344.25V224.12h30.41C389.91,252,399,287.11,399,325.31Z"/></clipPath></defs><g id="Layer_2" data-name="Layer 2"><g id="OBJECTS"><rect class="cls-2" width="498.57" height="498.57"/><path class="cls-3" d="M156.47,203.49a11.29,11.29,0,0,1-.27,2.48H80.05a11.29,11.29,0,0,1-.28-2.48A11.48,11.48,0,0,1,96,193.07a16.79,16.79,0,0,1,22.12-3.77,16.79,16.79,0,0,1,22.12,3.77,11.48,11.48,0,0,1,16.23,10.42Z"/><path class="cls-3" d="M283.32,156.34a13.45,13.45,0,0,1-.29,2.78H197.6a12.86,12.86,0,0,1,17.9-14.47,18.81,18.81,0,0,1,24.8-4.23,18.83,18.83,0,0,1,24.82,4.23,12.86,12.86,0,0,1,18.2,11.69Z"/><path class="cls-3" d="M441.87,193.05a10,10,0,0,1-.24,2.2H374.14a10,10,0,0,1-.24-2.2,10.16,10.16,0,0,1,14.38-9.23,14.89,14.89,0,0,1,19.6-3.35,14.9,14.9,0,0,1,19.61,3.35,10.16,10.16,0,0,1,14.38,9.23Z"/><path class="cls-4" d="M82,313.39a7.49,7.49,0,0,1-4-3.59,16.17,16.17,0,0,1-1.67-4.52c-.17-.7-.28-1.38-.38-2l-.14-.91c0-.32-.08-.44-.13-1.09a12,12,0,0,1,1-6.12A14.5,14.5,0,0,1,80,290.71a18.86,18.86,0,0,1,4-2.89,24,24,0,0,1,8.84-2.72,32.69,32.69,0,0,1-2.52,3.84c-.86,1.18-1.71,2.29-2.47,3.38a20.31,20.31,0,0,0-3.23,5.93,5.82,5.82,0,0,0-.19,2.22l.1,1c0,.41,0,.83,0,1.22a14.78,14.78,0,0,1-.18,2.26,22.83,22.83,0,0,1-1,4l-.67,2C82.44,311.67,82.24,312.44,82,313.39Z"/><path class="cls-4" d="M81.45,313.24a15.63,15.63,0,0,1,1.94-10.4,20.79,20.79,0,0,1,18-10.6,15.53,15.53,0,0,1,10,3.37c-3.4,1.3-6.18,2.3-8.78,3.48a69.12,69.12,0,0,0-7.2,3.64,67.38,67.38,0,0,0-6.7,4.52C86.46,309,84.23,310.89,81.45,313.24Z"/><path class="cls-4" d="M81.28,313.23a6.47,6.47,0,0,1,1.8-4.18,9.85,9.85,0,0,1,4-2.63,13,13,0,0,1,4.65-.75,17.14,17.14,0,0,1,11.89,5.14,12.78,12.78,0,0,1,3.76,7.7c-2.8-1.05-5-2-7.17-2.77S96,314.26,94,313.67a38,38,0,0,0-5.92-1.36,13.34,13.34,0,0,0-3.11-.05A11.89,11.89,0,0,0,81.28,313.23Z"/><path class="cls-4" d="M81.78,314c-2.18-.47-4.13-1-6-1.33a32.31,32.31,0,0,0-5.39-.64,19.21,19.21,0,0,0-4.71.39A18.5,18.5,0,0,0,61.42,314a29.49,29.49,0,0,0-4.15,2.52,51.15,51.15,0,0,0-4.11,3.32c-2.8,2.44-5.56,5.41-9.16,8a29.23,29.23,0,0,1,3.6-12.33,23,23,0,0,1,9.89-9.58A18.44,18.44,0,0,1,64.74,304,17.31,17.31,0,0,1,72,305.22,18.55,18.55,0,0,1,81.78,314Z"/><path class="cls-4" d="M81.45,313.57a47.24,47.24,0,0,0-7.85-6.38,33.25,33.25,0,0,0-7.6-3.66c-.18-.07-.26-.08-.35-.11a1.45,1.45,0,0,0-.33-.08,6.38,6.38,0,0,0-.78-.15,18.09,18.09,0,0,0-2-.16c-1.42-.07-3,0-4.63,0a78.47,78.47,0,0,1-10.72-.36,19.68,19.68,0,0,1,4.18-4,26.45,26.45,0,0,1,4.92-2.79A22.67,22.67,0,0,1,62,294.24a17.25,17.25,0,0,1,3.26-.16c.29,0,.58,0,.88.08a7.82,7.82,0,0,1,.92.13,9.08,9.08,0,0,1,1,.21,7.44,7.44,0,0,1,.89.27,19.52,19.52,0,0,1,9.85,7.4C81.05,305.54,82.3,309.66,81.45,313.57Z"/><path class="cls-4" d="M78.87,301.6A290.42,290.42,0,0,1,91,367.77l-11.81-.18A283.75,283.75,0,0,0,78,301.8Z"/><path class="cls-4" d="M423.66,324.57a6.1,6.1,0,0,0,3.25-2.92,13.29,13.29,0,0,0,1.36-3.68c.13-.56.22-1.11.31-1.61l.11-.74c0-.26.06-.36.1-.88a9.76,9.76,0,0,0-.85-5,11.73,11.73,0,0,0-2.62-3.63,15.6,15.6,0,0,0-3.22-2.34,19.41,19.41,0,0,0-7.19-2.21,27.15,27.15,0,0,0,2,3.12c.7.95,1.39,1.86,2,2.75a16.28,16.28,0,0,1,2.62,4.82,4.78,4.78,0,0,1,.16,1.8l-.08.84c0,.33,0,.67,0,1a13.32,13.32,0,0,0,.14,1.83,18.85,18.85,0,0,0,.83,3.23l.54,1.63C423.33,323.17,423.49,323.8,423.66,324.57Z"/><path class="cls-4" d="M424.13,324.44a12.64,12.64,0,0,0-1.57-8.44,16.87,16.87,0,0,0-14.64-8.62,12.59,12.59,0,0,0-8.15,2.74c2.76,1.06,5,1.87,7.14,2.82a52.48,52.48,0,0,1,11.29,6.63C420.07,321,421.87,322.54,424.13,324.44Z"/><path class="cls-4" d="M424.28,324.43a5.27,5.27,0,0,0-1.47-3.39,8,8,0,0,0-3.24-2.14,10.55,10.55,0,0,0-3.78-.61,13.87,13.87,0,0,0-9.66,4.18,10.36,10.36,0,0,0-3.06,6.25c2.28-.85,4.06-1.6,5.83-2.24s3.38-1.21,5-1.69a30.93,30.93,0,0,1,4.81-1.1,10.6,10.6,0,0,1,2.53,0A10,10,0,0,1,424.28,324.43Z"/><path class="cls-4" d="M423.87,325.1c1.77-.39,3.35-.81,4.9-1.09a27.38,27.38,0,0,1,4.38-.52,15.64,15.64,0,0,1,3.83.32,14.94,14.94,0,0,1,3.43,1.21,23.82,23.82,0,0,1,3.38,2.05c1.11.79,2.2,1.71,3.34,2.7a96.34,96.34,0,0,0,7.44,6.5,24.17,24.17,0,0,0-2.92-10,18.83,18.83,0,0,0-8-7.79,15.05,15.05,0,0,0-5.88-1.52,14.13,14.13,0,0,0-5.87,1A15,15,0,0,0,423.87,325.1Z"/><path class="cls-4" d="M424.13,324.72a38.83,38.83,0,0,1,6.38-5.2,27.7,27.7,0,0,1,6.18-3c.15-.06.21-.06.29-.09a1.67,1.67,0,0,1,.26-.06,4.59,4.59,0,0,1,.64-.12c.47-.07,1-.11,1.58-.14,1.15-.05,2.43,0,3.76,0a63,63,0,0,0,8.72-.29,16.24,16.24,0,0,0-3.4-3.24,21.85,21.85,0,0,0-4-2.27,18.67,18.67,0,0,0-4.61-1.32,13.58,13.58,0,0,0-2.66-.12,5.83,5.83,0,0,0-.71.06,7,7,0,0,0-.75.1c-.25,0-.5.1-.77.17s-.54.15-.72.22a15.87,15.87,0,0,0-8,6A12.26,12.26,0,0,0,424.13,324.72Z"/><path class="cls-4" d="M426.23,315a235.7,235.7,0,0,0-9.81,53.78l9.59-.15a230.7,230.7,0,0,1,1-53.46Z"/><path class="cls-4" d="M129.13,334.85a4.62,4.62,0,0,0,2.46-2.22,9.64,9.64,0,0,0,1-2.78c.11-.42.18-.84.24-1.22l.08-.56a6.09,6.09,0,0,0,.08-.67,7.24,7.24,0,0,0-.65-3.77,8.84,8.84,0,0,0-2-2.74,11.66,11.66,0,0,0-2.45-1.78,14.66,14.66,0,0,0-5.44-1.67,22.41,22.41,0,0,0,1.55,2.36c.53.72,1,1.41,1.52,2.08a12.41,12.41,0,0,1,2,3.65,3.7,3.7,0,0,1,.12,1.37l-.06.63c0,.25,0,.51,0,.75a8.8,8.8,0,0,0,.11,1.39,13.31,13.31,0,0,0,.62,2.45l.41,1.23C128.88,333.79,129,334.26,129.13,334.85Z"/><path class="cls-4" d="M129.49,334.75a9.64,9.64,0,0,0-1.2-6.39,12.79,12.79,0,0,0-11.09-6.53A9.64,9.64,0,0,0,111,323.9c2.1.81,3.81,1.42,5.41,2.14a43.64,43.64,0,0,1,4.43,2.25,43.06,43.06,0,0,1,4.12,2.77C126.4,332.11,127.77,333.31,129.49,334.75Z"/><path class="cls-4" d="M129.59,334.75a4,4,0,0,0-1.1-2.58,6.13,6.13,0,0,0-2.46-1.61,7.93,7.93,0,0,0-2.87-.47,10.17,10.17,0,0,0-2.72.42,10.42,10.42,0,0,0-4.59,2.75,7.92,7.92,0,0,0-2.32,4.73c1.73-.64,3.08-1.21,4.42-1.7s2.56-.91,3.81-1.27a23.18,23.18,0,0,1,3.64-.84,8.14,8.14,0,0,1,1.92,0A7.38,7.38,0,0,1,129.59,334.75Z"/><path class="cls-4" d="M129.28,335.25c1.34-.29,2.55-.61,3.72-.82a20.25,20.25,0,0,1,3.32-.4,11.62,11.62,0,0,1,2.89.25,10.74,10.74,0,0,1,2.6.91,18.78,18.78,0,0,1,2.56,1.55c.84.6,1.66,1.29,2.53,2.05a73.08,73.08,0,0,0,5.63,4.92,18,18,0,0,0-2.21-7.59,14.11,14.11,0,0,0-6.09-5.89,11.29,11.29,0,0,0-4.46-1.16,10.76,10.76,0,0,0-4.44.75A11.42,11.42,0,0,0,129.28,335.25Z"/><path class="cls-4" d="M129.48,335a28.69,28.69,0,0,1,4.83-3.93,20.64,20.64,0,0,1,4.68-2.25,1.63,1.63,0,0,1,.22-.07l.2,0c.14,0,.31-.07.48-.09a10.57,10.57,0,0,1,1.2-.1c.87,0,1.84,0,2.85,0a49,49,0,0,0,6.6-.22,12.12,12.12,0,0,0-2.57-2.45,15.89,15.89,0,0,0-3-1.72,13.79,13.79,0,0,0-3.5-1,10.81,10.81,0,0,0-2-.1l-.55.05c-.18,0-.37,0-.56.08s-.38.07-.58.13a3.64,3.64,0,0,0-.55.17,12,12,0,0,0-6.07,4.55A9.32,9.32,0,0,0,129.48,335Z"/><path class="cls-4" d="M131.07,327.59a178.6,178.6,0,0,0-7.43,40.72l7.27-.11a174.36,174.36,0,0,1,.73-40.49Z"/><path class="cls-4" d="M368.16,334.85a4.59,4.59,0,0,0,2.46-2.22,10,10,0,0,0,1-2.78c.1-.42.17-.84.24-1.22l.08-.56a6.09,6.09,0,0,0,.08-.67,7.34,7.34,0,0,0-.65-3.77,9,9,0,0,0-2-2.74,11.6,11.6,0,0,0-2.44-1.78,14.66,14.66,0,0,0-5.44-1.67,19.65,19.65,0,0,0,1.55,2.36c.53.72,1.05,1.41,1.52,2.08a12.65,12.65,0,0,1,2,3.65,3.92,3.92,0,0,1,.12,1.37l-.07.63c0,.25,0,.51,0,.75a10.17,10.17,0,0,0,.11,1.39,14.17,14.17,0,0,0,.63,2.45l.41,1.23C367.91,333.79,368,334.26,368.16,334.85Z"/><path class="cls-4" d="M368.52,334.75a9.57,9.57,0,0,0-1.19-6.39,12.79,12.79,0,0,0-11.09-6.53,9.64,9.64,0,0,0-6.17,2.07c2.1.81,3.8,1.42,5.4,2.14a40.48,40.48,0,0,1,8.56,5C365.44,332.11,366.81,333.31,368.52,334.75Z"/><path class="cls-4" d="M368.63,334.75a4,4,0,0,0-1.11-2.58,6.17,6.17,0,0,0-2.45-1.61,8,8,0,0,0-2.87-.47,10.24,10.24,0,0,0-2.73.42,10.48,10.48,0,0,0-4.59,2.75,7.9,7.9,0,0,0-2.31,4.73c1.72-.64,3.08-1.21,4.41-1.7s2.56-.91,3.81-1.27a23.56,23.56,0,0,1,3.65-.84,8.05,8.05,0,0,1,1.91,0A7.44,7.44,0,0,1,368.63,334.75Z"/><path class="cls-4" d="M368.32,335.25c1.34-.29,2.54-.61,3.71-.82a20.38,20.38,0,0,1,3.32-.4,11.7,11.7,0,0,1,2.9.25,10.74,10.74,0,0,1,2.6.91,18.69,18.69,0,0,1,2.55,1.55,30,30,0,0,1,2.53,2.05,71.49,71.49,0,0,0,5.64,4.92,18.36,18.36,0,0,0-2.21-7.59,14.22,14.22,0,0,0-6.09-5.89,11.29,11.29,0,0,0-4.46-1.16,10.74,10.74,0,0,0-4.44.75A11.39,11.39,0,0,0,368.32,335.25Z"/><path class="cls-4" d="M368.52,335a28.69,28.69,0,0,1,4.83-3.93,20.44,20.44,0,0,1,4.68-2.25,1.28,1.28,0,0,1,.22-.07l.2,0a4.16,4.16,0,0,1,.48-.09,10.19,10.19,0,0,1,1.2-.1c.87,0,1.84,0,2.84,0a49.07,49.07,0,0,0,6.61-.22,11.93,11.93,0,0,0-2.58-2.45,15.59,15.59,0,0,0-3-1.72,13.72,13.72,0,0,0-3.49-1,10.92,10.92,0,0,0-2-.1l-.54.05c-.18,0-.37,0-.56.08s-.38.07-.59.13a3.48,3.48,0,0,0-.54.17,12,12,0,0,0-6.07,4.55A9.28,9.28,0,0,0,368.52,335Z"/><path class="cls-4" d="M370.11,327.59a178.6,178.6,0,0,0-7.43,40.72l7.26-.11a174.91,174.91,0,0,1,.73-40.49Z"/><path class="cls-5" d="M411.41,319.46a213.59,213.59,0,0,1-5.72,49.42H334.8V160.77C380.72,193.27,411.41,252.18,411.41,319.46Z"/><path class="cls-6" d="M374.66,224.12H344.25V185.4C355.91,195.6,366.23,208.75,374.66,224.12Z"/><line class="cls-7" x1="335.98" y1="129.69" x2="335.98" y2="368.88"/><g class="cls-8"><rect class="cls-9" x="333.74" y="204.02" width="75.61" height="176.58"/><rect class="cls-5" x="299.58" y="252.42" width="134.58" height="11.61" transform="translate(-81.63 247.33) rotate(-33.75)"/><rect class="cls-5" x="299.58" y="273.33" width="134.58" height="11.61" transform="translate(-93.25 250.85) rotate(-33.75)"/><rect class="cls-5" x="299.58" y="294.24" width="134.58" height="11.61" transform="translate(-104.87 254.38) rotate(-33.75)"/><rect class="cls-5" x="299.58" y="315.15" width="134.58" height="11.61" transform="translate(-116.49 257.9) rotate(-33.75)"/><rect class="cls-5" x="299.58" y="336.07" width="134.58" height="11.61" transform="translate(-128.1 261.42) rotate(-33.75)"/><rect class="cls-5" x="299.58" y="356.98" width="134.58" height="11.61" transform="translate(-139.72 264.95) rotate(-33.75)"/><rect class="cls-5" x="311.99" y="369.39" width="134.58" height="11.61" transform="translate(-144.52 273.93) rotate(-33.75)"/><rect class="cls-5" x="299.58" y="231.5" width="134.58" height="11.61" transform="translate(-70.01 243.8) rotate(-33.75)"/><rect class="cls-5" x="299.58" y="210.59" width="134.58" height="11.61" transform="translate(-58.4 240.28) rotate(-33.75)"/></g><line class="cls-7" x1="379.56" y1="219.55" x2="341.92" y2="219.55"/><path class="cls-5" d="M253.11,314.31a18.54,18.54,0,0,1-.75,5.24,19.2,19.2,0,0,1-2,4.47H218.47a18.79,18.79,0,0,1-2-4.47,18.19,18.19,0,0,1-.75-5.24,18.67,18.67,0,0,1,18.67-18.68h.1A18.69,18.69,0,0,1,253.11,314.31Z"/><rect class="cls-10" x="216.37" y="319.55" width="36.13" height="9.13"/><rect class="cls-5" x="203.53" y="328.21" width="61.7" height="40.03"/><path class="cls-10" d="M242.42,368.25H227.9V352.42a29.79,29.79,0,0,1,5.85-17.63l1.56-2.13,1.62,2.3a29.76,29.76,0,0,1,5.49,17.13Z"/><path class="cls-10" d="M222.25,368.25H211.42V356.44a22.24,22.24,0,0,1,4.36-13.16l1.17-1.59,1.21,1.72a22.2,22.2,0,0,1,4.09,12.78Z"/><path class="cls-10" d="M260.46,368.25H249.62V356.44A22.25,22.25,0,0,1,254,343.28l1.17-1.59,1.2,1.72a22.14,22.14,0,0,1,4.1,12.78Z"/><path class="cls-11" d="M245.35,316.49a10.77,10.77,0,0,1-.44,3.08,11.23,11.23,0,0,1-1.15,2.63H225a11.23,11.23,0,0,1-1.15-2.63,10.77,10.77,0,0,1-.44-3.08,11,11,0,0,1,11-11h.05A11,11,0,0,1,245.35,316.49Z"/><rect class="cls-10" x="223.76" y="319.57" width="21.23" height="8.74"/><line class="cls-7" x1="164.97" y1="293.9" x2="164.97" y2="305.06"/><path class="cls-5" d="M181.45,315.9a16.59,16.59,0,0,1-.66,4.65,16.93,16.93,0,0,1-1.75,4H150.73a17.36,17.36,0,0,1-1.75-4,16.59,16.59,0,0,1,15.91-21.22H165A16.58,16.58,0,0,1,181.45,315.9Z"/><rect class="cls-10" x="148.87" y="320.55" width="32.04" height="8.1"/><rect class="cls-5" x="134.24" y="328.57" width="61.7" height="40.03"/><rect class="cls-10" x="134.24" y="351.13" width="61.7" height="17.47"/><path class="cls-2" d="M144.31,351h-4.57v-5a9.38,9.38,0,0,1,1.84-5.55l.49-.67.51.73a9.32,9.32,0,0,1,1.73,5.39Z"/><path class="cls-2" d="M160.44,351h-4.57v-5a9.38,9.38,0,0,1,1.84-5.55l.49-.67.51.73a9.32,9.32,0,0,1,1.73,5.39Z"/><path class="cls-2" d="M173.59,351H169v-5a9.32,9.32,0,0,1,1.85-5.55l.49-.67.51.73a9.32,9.32,0,0,1,1.73,5.39Z"/><path class="cls-2" d="M189.71,351h-4.57v-5a9.38,9.38,0,0,1,1.84-5.55l.49-.67.51.73a9.32,9.32,0,0,1,1.73,5.39Z"/><path class="cls-2" d="M144.31,368.6h-4.57v-5a9.39,9.39,0,0,1,1.84-5.56l.49-.67.51.73a9.32,9.32,0,0,1,1.73,5.39Z"/><path class="cls-2" d="M160.44,368.6h-4.57v-5a9.39,9.39,0,0,1,1.84-5.56l.49-.67.51.73a9.32,9.32,0,0,1,1.73,5.39Z"/><path class="cls-2" d="M173.59,368.6H169v-5a9.33,9.33,0,0,1,1.85-5.56l.49-.67.51.73a9.32,9.32,0,0,1,1.73,5.39Z"/><path class="cls-2" d="M189.71,368.6h-4.57v-5a9.39,9.39,0,0,1,1.84-5.56l.49-.67.51.73a9.32,9.32,0,0,1,1.73,5.39Z"/><line class="cls-7" x1="165.14" y1="308.34" x2="165.14" y2="315.74"/><path class="cls-11" d="M176.06,322.92a10.75,10.75,0,0,1-.44,3.07,11.23,11.23,0,0,1-1.15,2.63H155.7a11.23,11.23,0,0,1-1.15-2.63,10.75,10.75,0,0,1-.44-3.07,11,11,0,0,1,11-11h0A11,11,0,0,1,176.06,322.92Z"/><rect class="cls-10" x="154.47" y="325.99" width="21.23" height="2.63"/><line class="cls-7" x1="144.44" y1="312.82" x2="144.44" y2="317.19"/><path class="cls-11" d="M150.89,321.43a6.52,6.52,0,0,1-.94,3.37H138.86a6.49,6.49,0,0,1,5.55-9.86h0A6.49,6.49,0,0,1,150.89,321.43Z"/><rect class="cls-10" x="138.13" y="323.25" width="12.55" height="1.55"/><rect class="cls-11" x="138.23" y="324.8" width="12.35" height="3.82"/><line class="cls-7" x1="185.8" y1="312.82" x2="185.8" y2="317.19"/><path class="cls-11" d="M192.25,321.43a6.52,6.52,0,0,1-.94,3.37H180.22a6.49,6.49,0,0,1,5.55-9.86h0A6.49,6.49,0,0,1,192.25,321.43Z"/><rect class="cls-10" x="179.49" y="323.25" width="12.55" height="1.55"/><rect class="cls-11" x="179.59" y="324.8" width="12.35" height="3.82"/><rect class="cls-5" x="272.82" y="328.57" width="61.7" height="40.03"/><rect class="cls-10" x="272.82" y="351.13" width="61.7" height="17.47"/><path class="cls-2" d="M282.89,351h-4.57v-5a9.38,9.38,0,0,1,1.84-5.55l.49-.67.51.73a9.32,9.32,0,0,1,1.73,5.39Z"/><path class="cls-2" d="M299,351h-4.57v-5a9.38,9.38,0,0,1,1.84-5.55l.49-.67.51.73a9.32,9.32,0,0,1,1.73,5.39Z"/><path class="cls-2" d="M312.17,351h-4.58v-5a9.32,9.32,0,0,1,1.85-5.55l.49-.67.51.73a9.32,9.32,0,0,1,1.73,5.39Z"/><path class="cls-2" d="M328.29,351h-4.57v-5a9.38,9.38,0,0,1,1.84-5.55l.49-.67.51.73a9.32,9.32,0,0,1,1.73,5.39Z"/><path class="cls-2" d="M282.89,368.6h-4.57v-5a9.39,9.39,0,0,1,1.84-5.56l.49-.67.51.73a9.32,9.32,0,0,1,1.73,5.39Z"/><path class="cls-2" d="M299,368.6h-4.57v-5a9.39,9.39,0,0,1,1.84-5.56l.49-.67.51.73a9.32,9.32,0,0,1,1.73,5.39Z"/><path class="cls-2" d="M312.17,368.6h-4.58v-5a9.33,9.33,0,0,1,1.85-5.56l.49-.67.51.73a9.32,9.32,0,0,1,1.73,5.39Z"/><path class="cls-2" d="M328.29,368.6h-4.57v-5a9.39,9.39,0,0,1,1.84-5.56l.49-.67.51.73a9.32,9.32,0,0,1,1.73,5.39Z"/><path class="cls-5" d="M320.15,315.9a16.59,16.59,0,0,1-.66,4.65,16.9,16.9,0,0,1-1.74,4H289.43a16.9,16.9,0,0,1-1.74-4,16.24,16.24,0,0,1-.67-4.65,16.58,16.58,0,0,1,16.57-16.57h.09A16.58,16.58,0,0,1,320.15,315.9Z"/><rect class="cls-10" x="287.57" y="320.55" width="32.04" height="8.1"/><rect class="cls-10" x="265.17" y="325.17" width="7.67" height="43.44"/><rect class="cls-10" x="195.96" y="325.17" width="7.67" height="43.44"/><line class="cls-7" x1="442.65" y1="368.77" x2="59.66" y2="368.77"/><path class="cls-12" d="M133.23,241.16h-2.08L120.49,225v16.16h-1.93V222.58h2.51l10.25,15.59V222.58h1.91Z"/><path class="cls-12" d="M147.24,239.42a6.64,6.64,0,0,1-5.12,2.06,6.75,6.75,0,0,1-4.87-2.18,7,7,0,0,1-2-5,7.08,7.08,0,0,1,2.15-5.16,6.58,6.58,0,0,1,5.11-2.08,6.8,6.8,0,0,1,4.88,2.22,7.2,7.2,0,0,1-.17,10.13Zm-5.09.25A4.75,4.75,0,0,0,146,238.1a5.47,5.47,0,0,0,0-7.67,4.73,4.73,0,0,0-3.57-1.55,5,5,0,0,0-3.74,1.55,5.12,5.12,0,0,0-1.57,3.73,5.36,5.36,0,0,0,1.42,3.82A4.94,4.94,0,0,0,142.15,239.67Z"/><path class="cls-12" d="M177.73,234.36a6.71,6.71,0,0,1-2.12,5.14,6.86,6.86,0,0,1-5.17,2.05,6.74,6.74,0,0,1-4.87-2.17,7.28,7.28,0,0,1,.17-10.16,6.57,6.57,0,0,1,5.11-2.08,6.85,6.85,0,0,1,5.07,2.44v-6.92h1.81Zm-7.26,5.38a4.75,4.75,0,0,0,3.86-1.57,5.26,5.26,0,0,0,1.54-4,5.32,5.32,0,0,0-1.54-3.71,4.75,4.75,0,0,0-3.6-1.55A5,5,0,0,0,167,230.5a5.2,5.2,0,0,0-1.57,3.74,5.37,5.37,0,0,0,1.45,3.81A4.88,4.88,0,0,0,170.47,239.74Z"/><path class="cls-12" d="M193.79,241.16H192V239a6.71,6.71,0,0,1-5.5,2.47,6.81,6.81,0,0,1-4.85-2.2,7,7,0,0,1-2-5,7.09,7.09,0,0,1,2.14-5.17,6.59,6.59,0,0,1,5.14-2.05,6.89,6.89,0,0,1,4.92,2.22,6.54,6.54,0,0,1,1.93,5v6.9Zm-12.28-7a5.33,5.33,0,0,0,1.43,3.81,5.06,5.06,0,0,0,3.59,1.72,4.81,4.81,0,0,0,3.86-1.57,5.54,5.54,0,0,0,0-7.7,4.78,4.78,0,0,0-3.6-1.54,5.06,5.06,0,0,0-3.74,1.54A5.2,5.2,0,0,0,181.51,234.14Z"/><path class="cls-12" d="M200.74,241.45c-3.36,0-5-1.42-5-4.27v-14.6h1.86v4.81h3.16v1.71h-3.16v7.77c0,2,1.06,3.06,3.16,3.06Z"/><path class="cls-12" d="M216.47,241.16h-1.79V239a6.71,6.71,0,0,1-5.5,2.47,6.83,6.83,0,0,1-4.85-2.2,7.26,7.26,0,0,1,.15-10.16,6.56,6.56,0,0,1,5.13-2.05,6.93,6.93,0,0,1,4.93,2.22,6.58,6.58,0,0,1,1.93,5v6.9Zm-12.28-7a5.28,5.28,0,0,0,1.42,3.81,5.06,5.06,0,0,0,3.59,1.72,4.81,4.81,0,0,0,3.86-1.57,5.39,5.39,0,0,0,1.57-4,5.33,5.33,0,0,0-1.54-3.72,4.78,4.78,0,0,0-3.6-1.54,5.06,5.06,0,0,0-3.74,1.54A5.19,5.19,0,0,0,204.19,234.14Z"/><path class="cls-12" d="M232.31,241.16h-1.86v-14c0-2.92,2-4.58,4.83-4.58h.48v1.64l-.48,0a3,3,0,0,0-2.05.68,2.85,2.85,0,0,0-.92,1.93v.58h3.45v1.69h-3.45Z"/><path class="cls-12" d="M249.25,239.42a6.94,6.94,0,0,1-10-.12,7.27,7.27,0,0,1,.17-10.15,6.57,6.57,0,0,1,5.11-2.08,6.76,6.76,0,0,1,4.87,2.22,7.19,7.19,0,0,1-.16,10.13Zm-5.1.25A4.75,4.75,0,0,0,248,238.1a5.34,5.34,0,0,0,1.57-4,5.4,5.4,0,0,0-1.57-3.71,4.71,4.71,0,0,0-3.57-1.55,5,5,0,0,0-3.74,1.55,5.15,5.15,0,0,0-1.56,3.73,5.32,5.32,0,0,0,1.42,3.82A4.92,4.92,0,0,0,244.15,239.67Z"/><path class="cls-12" d="M265.43,235.25a6.11,6.11,0,0,1-1.74,4.46,5.73,5.73,0,0,1-4.34,1.79,5.84,5.84,0,0,1-4.37-1.79,6.21,6.21,0,0,1-1.71-4.46v-7.84h1.86v8.06a4.06,4.06,0,0,0,1.25,3,4.14,4.14,0,0,0,3,1.23,4.29,4.29,0,0,0,4.22-4.22v-8.06h1.86Z"/><path class="cls-12" d="M279.61,241.16h-1.85v-8a4.09,4.09,0,0,0-1.28-3,4,4,0,0,0-3-1.26,4.29,4.29,0,0,0-4.24,4.25v8h-1.86v-7.84a6.08,6.08,0,0,1,1.74-4.44,6.22,6.22,0,0,1,8.71,0,6.11,6.11,0,0,1,1.73,4.44Z"/><path class="cls-12" d="M295.94,234.36a6.71,6.71,0,0,1-2.12,5.14,6.83,6.83,0,0,1-5.16,2.05,6.75,6.75,0,0,1-4.88-2.17,7.31,7.31,0,0,1,.17-10.16,6.61,6.61,0,0,1,5.12-2.08,6.85,6.85,0,0,1,5.06,2.44v-6.92h1.81Zm-7.26,5.38a4.75,4.75,0,0,0,3.86-1.57,5.27,5.27,0,0,0,1.55-4,5.38,5.38,0,0,0-1.55-3.71A4.74,4.74,0,0,0,289,229a5,5,0,0,0-3.74,1.55,5.16,5.16,0,0,0-1.57,3.74,5.33,5.33,0,0,0,1.45,3.81A4.88,4.88,0,0,0,288.68,239.74Z"/><path class="cls-10" d="M134.23,241.16h-2.08L121.49,225v16.16h-1.93V222.58h2.51l10.25,15.59V222.58h1.91Z"/><path class="cls-10" d="M148.24,239.42a6.64,6.64,0,0,1-5.12,2.06,6.75,6.75,0,0,1-4.87-2.18,7,7,0,0,1-2-5,7.08,7.08,0,0,1,2.15-5.16,6.58,6.58,0,0,1,5.11-2.08,6.8,6.8,0,0,1,4.88,2.22,7.2,7.2,0,0,1-.17,10.13Zm-5.09.25A4.75,4.75,0,0,0,147,238.1a5.47,5.47,0,0,0,0-7.67,4.73,4.73,0,0,0-3.57-1.55,5,5,0,0,0-3.74,1.55,5.12,5.12,0,0,0-1.57,3.73,5.36,5.36,0,0,0,1.42,3.82A4.94,4.94,0,0,0,143.15,239.67Z"/><path class="cls-10" d="M178.73,234.36a6.71,6.71,0,0,1-2.12,5.14,6.86,6.86,0,0,1-5.17,2.05,6.74,6.74,0,0,1-4.87-2.17,7.28,7.28,0,0,1,.17-10.16,6.57,6.57,0,0,1,5.11-2.08,6.85,6.85,0,0,1,5.07,2.44v-6.92h1.81Zm-7.26,5.38a4.75,4.75,0,0,0,3.86-1.57,5.26,5.26,0,0,0,1.54-4,5.32,5.32,0,0,0-1.54-3.71,4.75,4.75,0,0,0-3.6-1.55A5,5,0,0,0,168,230.5a5.2,5.2,0,0,0-1.57,3.74,5.37,5.37,0,0,0,1.45,3.81A4.88,4.88,0,0,0,171.47,239.74Z"/><path class="cls-10" d="M194.79,241.16H193V239a6.71,6.71,0,0,1-5.5,2.47,6.81,6.81,0,0,1-4.85-2.2,7,7,0,0,1-2-5,7.09,7.09,0,0,1,2.14-5.17,6.59,6.59,0,0,1,5.14-2.05,6.89,6.89,0,0,1,4.92,2.22,6.54,6.54,0,0,1,1.93,5v6.9Zm-12.28-7a5.33,5.33,0,0,0,1.43,3.81,5.06,5.06,0,0,0,3.59,1.72,4.81,4.81,0,0,0,3.86-1.57,5.54,5.54,0,0,0,0-7.7,4.78,4.78,0,0,0-3.6-1.54,5.06,5.06,0,0,0-3.74,1.54A5.2,5.2,0,0,0,182.51,234.14Z"/><path class="cls-10" d="M201.74,241.45c-3.36,0-5-1.42-5-4.27v-14.6h1.86v4.81h3.16v1.71h-3.16v7.77c0,2,1.06,3.06,3.16,3.06Z"/><path class="cls-10" d="M217.47,241.16h-1.79V239a6.71,6.71,0,0,1-5.5,2.47,6.83,6.83,0,0,1-4.85-2.2,7.26,7.26,0,0,1,.15-10.16,6.56,6.56,0,0,1,5.13-2.05,6.93,6.93,0,0,1,4.93,2.22,6.58,6.58,0,0,1,1.93,5v6.9Zm-12.28-7a5.28,5.28,0,0,0,1.42,3.81,5.06,5.06,0,0,0,3.59,1.72,4.81,4.81,0,0,0,3.86-1.57,5.39,5.39,0,0,0,1.57-4,5.33,5.33,0,0,0-1.54-3.72,4.78,4.78,0,0,0-3.6-1.54,5.06,5.06,0,0,0-3.74,1.54A5.19,5.19,0,0,0,205.19,234.14Z"/><path class="cls-10" d="M233.31,241.16h-1.86v-14c0-2.92,2-4.58,4.83-4.58h.48v1.64l-.48,0a3,3,0,0,0-2.05.68,2.85,2.85,0,0,0-.92,1.93v.58h3.45v1.69h-3.45Z"/><path class="cls-10" d="M250.25,239.42a6.94,6.94,0,0,1-10-.12,7.27,7.27,0,0,1,.17-10.15,6.57,6.57,0,0,1,5.11-2.08,6.76,6.76,0,0,1,4.87,2.22,7.19,7.19,0,0,1-.16,10.13Zm-5.1.25A4.75,4.75,0,0,0,249,238.1a5.34,5.34,0,0,0,1.57-4,5.4,5.4,0,0,0-1.57-3.71,4.71,4.71,0,0,0-3.57-1.55,5,5,0,0,0-3.74,1.55,5.15,5.15,0,0,0-1.56,3.73,5.32,5.32,0,0,0,1.42,3.82A4.92,4.92,0,0,0,245.15,239.67Z"/><path class="cls-10" d="M266.43,235.25a6.11,6.11,0,0,1-1.74,4.46,5.73,5.73,0,0,1-4.34,1.79,5.84,5.84,0,0,1-4.37-1.79,6.21,6.21,0,0,1-1.71-4.46v-7.84h1.86v8.06a4.06,4.06,0,0,0,1.25,3,4.14,4.14,0,0,0,3,1.23,4.29,4.29,0,0,0,4.22-4.22v-8.06h1.86Z"/><path class="cls-10" d="M280.61,241.16h-1.85v-8a4.09,4.09,0,0,0-1.28-3,4,4,0,0,0-3-1.26,4.29,4.29,0,0,0-4.24,4.25v8h-1.86v-7.84a6.08,6.08,0,0,1,1.74-4.44,6.22,6.22,0,0,1,8.71,0,6.11,6.11,0,0,1,1.73,4.44Z"/><path class="cls-10" d="M296.94,234.36a6.71,6.71,0,0,1-2.12,5.14,6.83,6.83,0,0,1-5.16,2.05,6.75,6.75,0,0,1-4.88-2.17,7.31,7.31,0,0,1,.17-10.16,6.61,6.61,0,0,1,5.12-2.08,6.85,6.85,0,0,1,5.06,2.44v-6.92h1.81Zm-7.26,5.38a4.75,4.75,0,0,0,3.86-1.57,5.27,5.27,0,0,0,1.55-4,5.38,5.38,0,0,0-1.55-3.71A4.74,4.74,0,0,0,290,229a5,5,0,0,0-3.74,1.55,5.16,5.16,0,0,0-1.57,3.74,5.33,5.33,0,0,0,1.45,3.81A4.88,4.88,0,0,0,289.68,239.74Z"/><line class="cls-7" x1="233.54" y1="293.39" x2="233.54" y2="304.55"/><path class="cls-5" d="M250,315.39a16.17,16.17,0,0,1-.67,4.64,16.79,16.79,0,0,1-1.74,4H219.29a17.21,17.21,0,0,1-1.74-4,16.58,16.58,0,0,1,15.9-21.21h.09A16.58,16.58,0,0,1,250,315.39Z"/><rect class="cls-10" x="217.43" y="320.03" width="32.04" height="8.1"/><line class="cls-7" x1="233.71" y1="307.83" x2="233.71" y2="315.23"/><path class="cls-11" d="M244.63,322.4a10.77,10.77,0,0,1-.44,3.08,11.23,11.23,0,0,1-1.15,2.63H224.27a11.23,11.23,0,0,1-1.15-2.63,10.77,10.77,0,0,1-.44-3.08,11,11,0,0,1,11-11h.06A11,11,0,0,1,244.63,322.4Z"/><rect class="cls-10" x="223.04" y="325.48" width="21.23" height="2.63"/><line class="cls-7" x1="213.01" y1="312.3" x2="213.01" y2="316.67"/><path class="cls-11" d="M219.46,320.92a6.52,6.52,0,0,1-.94,3.37H207.43a6.49,6.49,0,0,1,5.54-9.86h0A6.49,6.49,0,0,1,219.46,320.92Z"/><rect class="cls-10" x="206.7" y="322.74" width="12.55" height="1.55"/><rect class="cls-11" x="206.8" y="324.29" width="12.35" height="3.82"/><line class="cls-7" x1="254.37" y1="312.3" x2="254.37" y2="316.67"/><path class="cls-11" d="M260.82,320.92a6.52,6.52,0,0,1-.94,3.37H248.79a6.49,6.49,0,0,1,5.54-9.86h0A6.49,6.49,0,0,1,260.82,320.92Z"/><rect class="cls-10" x="248.06" y="322.74" width="12.55" height="1.55"/><rect class="cls-11" x="248.16" y="324.29" width="12.35" height="3.82"/><line class="cls-7" x1="303.54" y1="293.39" x2="303.54" y2="304.55"/><path class="cls-5" d="M320,315.39a16.17,16.17,0,0,1-.67,4.64,16.79,16.79,0,0,1-1.74,4H289.29a17.21,17.21,0,0,1-1.74-4,16.58,16.58,0,0,1,15.9-21.21h.09A16.58,16.58,0,0,1,320,315.39Z"/><rect class="cls-10" x="287.43" y="320.03" width="32.04" height="8.1"/><line class="cls-7" x1="303.71" y1="307.83" x2="303.71" y2="315.23"/><path class="cls-11" d="M314.63,322.4a10.77,10.77,0,0,1-.44,3.08,11.23,11.23,0,0,1-1.15,2.63H294.27a11.23,11.23,0,0,1-1.15-2.63,10.77,10.77,0,0,1-.44-3.08,11,11,0,0,1,11-11h.06A11,11,0,0,1,314.63,322.4Z"/><rect class="cls-10" x="293.04" y="325.48" width="21.23" height="2.63"/><line class="cls-7" x1="283.01" y1="312.3" x2="283.01" y2="316.67"/><path class="cls-11" d="M289.46,320.92a6.52,6.52,0,0,1-.94,3.37H277.43a6.49,6.49,0,0,1,5.54-9.86h0A6.49,6.49,0,0,1,289.46,320.92Z"/><rect class="cls-10" x="276.7" y="322.74" width="12.55" height="1.55"/><rect class="cls-11" x="276.8" y="324.29" width="12.35" height="3.82"/><line class="cls-7" x1="324.37" y1="312.3" x2="324.37" y2="316.67"/><path class="cls-11" d="M330.82,320.92a6.52,6.52,0,0,1-.94,3.37H318.79a6.49,6.49,0,0,1,5.54-9.86h0A6.49,6.49,0,0,1,330.82,320.92Z"/><rect class="cls-10" x="318.06" y="322.74" width="12.55" height="1.55"/><rect class="cls-11" x="318.16" y="324.29" width="12.35" height="3.82"/></g></g></svg>